<?xml version="1.0" standalone="no"?>
<!DOCTYPE svg PUBLIC "-//W3C//DTD SVG 20010904//EN"
 "http://www.w3.org/TR/2001/REC-SVG-20010904/DTD/svg10.dtd">
<svg version="1.0" xmlns="http://www.w3.org/2000/svg"
 width="510.000000pt" height="510.000000pt" viewBox="0 0 510.000000 510.000000"
 preserveAspectRatio="xMidYMid meet">
<metadata>
Created by potrace 1.11, written by Peter Selinger 2001-2013
</metadata>
<g transform="translate(0.000000,510.000000) scale(0.100000,-0.100000)"
fill="#000000" stroke="none">
<path d="M2370 4588 c-348 -49 -681 -336 -959 -825 -203 -358 -413 -928 -567
-1543 l-29 -115 -6 80 -5 80 -2 -97 -2 -97 -52 -4 -53 -3 53 -2 c28 -1 52 -5
52 -10 0 -4 -20 -97 -45 -207 -34 -150 -155 -776 -155 -800 0 -2 -10 -6 -22
-8 -21 -4 -21 -4 -2 -6 l21 -1 -18 -109 c-9 -61 -20 -114 -23 -119 -3 -5 -25
-12 -48 -16 -24 -4 -77 -16 -119 -27 -70 -19 -76 -23 -71 -42 8 -36 20 -45
100 -71 209 -69 567 -116 1222 -158 131 -9 458 -13 995 -13 774 0 918 4 1320
36 404 32 740 81 880 129 29 10 56 16 59 13 3 -4 6 -1 6 5 0 38 -128 89 -313
127 l-111 22 -37 214 c-21 118 -53 291 -71 384 -29 149 -33 186 -30 302 l3
132 117 3 117 3 3 32 3 33 262 3 262 2 -267 3 -268 2 0 -35 0 -35 -120 0 -120
0 -1 -117 -1 -118 -49 215 c-27 118 -49 221 -49 228 0 8 18 12 55 12 l55 0 0
-79 c0 -80 6 -92 43 -90 7 0 2 4 -10 9 -21 9 -23 16 -23 90 l0 80 -65 0 c-62
0 -65 1 -71 28 -18 78 -90 345 -129 477 -326 1106 -753 1774 -1250 1954 -156
56 -305 72 -465 49z m206 -129 c358 -40 642 -283 890 -763 187 -363 345 -851
469 -1451 l33 -160 -34 -3 c-25 -2 -39 -12 -55 -35 l-21 -32 24 28 c17 19 33
27 55 27 36 0 33 9 73 -220 50 -285 146 -987 136 -997 -2 -2 -82 3 -177 11
-222 20 -446 34 -674 42 -99 3 -200 7 -225 9 -25 1 -244 3 -487 4 l-443 1 0
90 0 90 42 21 c39 20 43 20 75 5 19 -9 32 -12 28 -6 -4 6 13 10 44 10 28 0 51
3 51 8 0 4 -27 5 -59 4 -33 -2 -68 1 -78 7 -15 7 -26 5 -49 -10 l-29 -19 -7
23 c-6 20 -6 20 -7 -5 -1 -15 -5 -30 -11 -33 -5 -3 -10 -46 -10 -96 0 -88 0
-89 -25 -89 l-25 0 0 143 c1 108 4 147 15 161 12 16 17 17 32 6 17 -13 17 -13
0 6 -18 19 -18 19 -37 -6 -17 -22 -20 -42 -20 -171 l0 -146 -227 -6 c-303 -9
-856 -46 -932 -63 l-24 -5 7 73 c4 40 9 88 13 106 l5 32 192 0 c126 0 196 -4
203 -11 6 -6 19 -9 29 -6 16 4 15 5 -3 6 l-23 1 0 495 0 495 265 0 265 0 0
-485 0 -484 -67 -4 -68 -3 70 0 70 1 3 493 2 492 -275 0 -275 0 0 -55 0 -55
-65 0 -64 0 6 33 c3 17 6 36 7 40 0 5 -8 14 -19 20 -17 10 -18 10 -4 -1 23
-18 8 -79 -26 -106 -24 -20 -26 -25 -22 -91 l3 -70 2 72 c2 87 9 93 111 93
l71 0 0 -430 0 -430 -196 0 -196 0 6 38 c3 20 15 111 26 202 28 226 23 210 73
212 l42 1 -43 4 c-23 2 -42 7 -42 11 0 6 36 229 72 451 13 79 23 90 66 72 25
-11 26 -10 8 4 -11 8 -28 15 -38 15 -22 0 -23 -10 29 245 178 872 442 1522
749 1844 177 187 342 277 549 300 39 5 71 9 73 10 1 0 46 -4 98 -10z"/>
<path d="M2751 3422 c-51 -3 -53 -4 -30 -15 22 -12 24 -18 27 -101 3 -84 2
-88 -15 -75 -17 13 -17 13 0 -7 14 -17 17 -41 17 -141 0 -107 -2 -123 -21
-147 -29 -37 -79 -36 -112 4 -46 54 -47 197 -3 262 16 25 31 34 61 39 l40 6
-43 2 c-92 3 -147 -67 -147 -184 1 -52 6 -80 21 -105 39 -69 128 -88 180 -39
l24 22 0 -21 c0 -20 5 -22 58 -22 47 1 54 3 37 12 -11 6 -22 13 -25 15 -3 3
-7 116 -10 251 l-5 247 -54 -3z"/>
<path d="M3434 3420 c-12 -4 -31 -20 -42 -35 l-20 -26 -34 21 c-83 50 -188 -8
-188 -104 0 -22 -4 -26 -32 -27 l-33 -1 30 -7 30 -6 3 -135 c3 -156 1 -173
-30 -188 -19 -9 -8 -11 57 -11 65 0 76 2 60 11 -11 6 -23 16 -27 22 -4 6 -8
77 -8 159 l0 147 80 0 80 0 0 -155 0 -154 -27 -15 c-26 -14 -23 -15 67 -15 89
0 93 1 60 13 l-35 13 -3 156 -3 156 38 4 38 4 -37 1 -38 2 0 68 c0 54 4 72 18
85 21 19 57 22 67 7 3 -5 2 -10 -4 -10 -5 0 -13 -10 -17 -22 -9 -28 20 -52 47
-37 27 14 23 44 -7 68 -28 22 -55 25 -90 11z m-105 -45 c35 -18 41 -32 34 -84
l-6 -41 -80 0 -80 0 5 52 c8 79 59 109 127 73z"/>
<path d="M2946 3404 c-9 -8 -16 -22 -16 -29 0 -13 26 -45 36 -45 20 0 44 25
44 45 0 14 -8 29 -19 35 -25 13 -27 13 -45 -6z"/>
<path d="M1598 3381 c-81 -26 -137 -106 -145 -205 -14 -171 53 -270 189 -281
53 -4 53 -4 11 5 -95 20 -136 86 -141 225 -7 190 76 289 203 241 53 -21 63
-32 86 -99 l18 -52 0 85 c0 61 -3 79 -9 63 -11 -28 -14 -28 -56 -3 -37 23
-116 34 -156 21z"/>
<path d="M2015 3243 c56 -6 65 -17 65 -80 l0 -54 -67 -30 c-87 -39 -113 -63
-113 -105 0 -69 85 -94 152 -44 33 24 38 25 38 5 0 -9 11 -21 25 -27 20 -9 32
-8 58 4 l32 16 -30 -1 -30 -2 -5 135 c-3 74 -9 143 -14 153 -13 27 -40 37 -98
35 -47 -1 -48 -2 -13 -5z m44 -295 c-29 -25 -85 -24 -99 1 -26 50 -4 89 75
129 l40 20 3 -66 c3 -59 0 -69 -19 -84z"/>
<path d="M2237 3240 c12 -5 26 -18 32 -29 12 -22 15 -260 3 -278 -4 -7 -19
-16 -32 -22 -19 -7 -3 -10 70 -10 l95 -1 -35 18 -35 17 -3 99 c-1 55 2 112 7
128 6 18 7 26 1 23 -6 -4 -10 9 -10 29 l0 36 -57 -1 c-44 0 -53 -2 -36 -9z"/>
<path d="M2417 3243 c19 -4 21 -7 11 -22 -16 -26 -3 -51 26 -51 21 0 36 16 36
40 0 19 -34 40 -63 39 -23 -1 -26 -3 -10 -6z"/>
<path d="M2925 3225 c24 -23 25 -29 25 -152 0 -134 -2 -142 -35 -161 -16 -9
-5 -11 60 -11 65 0 76 2 60 11 -11 6 -23 16 -27 22 -4 6 -8 80 -8 164 l0 152
-50 0 -49 0 24 -25z"/>
<path d="M1932 3217 c-26 -28 -27 -40 -6 -61 12 -12 20 -13 35 -6 23 13 25 48
4 56 -12 5 -13 10 -4 20 19 24 -6 15 -29 -9z"/>
<path d="M2364 3218 l-19 -23 23 19 c21 18 27 26 19 26 -2 0 -12 -10 -23 -22z"/>
<path d="M1805 3020 c-8 -48 -38 -88 -79 -106 -17 -7 -24 -13 -16 -14 8 0 29
9 45 20 38 25 44 25 55 -2 6 -17 9 0 9 60 1 45 -1 82 -3 82 -2 0 -7 -18 -11
-40z"/>
<path d="M3492 2585 c0 -16 2 -22 5 -12 2 9 2 23 0 30 -3 6 -5 -1 -5 -18z"/>
<path d="M3694 2581 c0 -21 7 -36 16 -38 10 -3 11 -2 3 4 -6 4 -13 22 -16 38
-4 27 -5 27 -3 -4z"/>
<path d="M3453 2538 c-13 -6 -23 -15 -23 -20 0 -7 31 8 59 29 10 7 -16 1 -36
-9z"/>
<path d="M3736 2532 c7 -4 14 -18 17 -32 4 -21 4 -20 6 8 1 24 -3 32 -16 32
-12 0 -14 -3 -7 -8z"/>
<path d="M3379 2443 c-12 -16 -12 -17 1 -7 8 7 24 14 35 17 19 4 19 5 -1 6
-12 0 -28 -7 -35 -16z"/>
<path d="M3810 2000 c0 -6 7 -10 15 -10 8 0 15 2 15 4 0 2 -7 6 -15 10 -8 3
-15 1 -15 -4z"/>
<path d="M2560 1861 c0 -6 5 -13 10 -16 6 -3 10 1 10 9 0 9 -4 16 -10 16 -5 0
-10 -4 -10 -9z"/>
<path d="M3695 1833 c127 -3 142 -6 165 -26 l25 -22 -24 28 -24 27 -141 -2
-141 -2 140 -3z"/>
<path d="M2580 1824 c0 -5 26 -34 58 -64 l57 -55 -55 60 c-30 33 -56 62 -57
64 -2 2 -3 0 -3 -5z"/>
<path d="M2519 1793 l-24 -28 28 24 c25 23 32 31 24 31 -2 0 -14 -12 -28 -27z"/>
<path d="M3918 1793 c17 -2 47 -2 65 0 17 2 3 4 -33 4 -36 0 -50 -2 -32 -4z"/>
<path d="M2471 1736 c-16 -17 -21 -32 -18 -52 l4 -29 2 29 c0 17 11 40 23 53
12 13 19 23 16 23 -2 0 -15 -11 -27 -24z"/>
<path d="M3332 1632 c-2 -102 -2 -103 -24 -97 -23 7 -23 7 -3 -8 11 -9 24 -12
28 -8 4 4 6 55 4 112 l-3 104 -2 -103z"/>
<path d="M1104 1630 c0 -52 1 -74 3 -47 2 26 2 68 0 95 -2 26 -3 4 -3 -48z"/>
<path d="M2703 1657 c9 -8 17 -24 17 -36 0 -21 3 -21 150 -21 l150 0 0 -235
c0 -181 -3 -235 -12 -235 -9 0 -8 -4 2 -10 24 -15 25 -13 23 37 -1 27 -2 139
-2 251 l-1 202 -150 0 c-142 0 -150 1 -150 20 0 10 -10 24 -22 30 -21 10 -21
10 -5 -3z"/>
<path d="M2415 1650 c-3 -6 1 -7 9 -4 18 7 21 14 7 14 -6 0 -13 -4 -16 -10z"/>
<path d="M2623 1627 c13 -11 17 -29 17 -79 0 -43 5 -71 16 -84 15 -18 15 -18
5 3 -6 12 -11 51 -11 87 0 58 -3 67 -22 76 -21 10 -21 10 -5 -3z"/>
<path d="M2555 1620 c-3 -6 1 -7 9 -4 18 7 21 14 7 14 -6 0 -13 -4 -16 -10z"/>
<path d="M2542 1570 c0 -19 2 -27 5 -17 2 9 2 25 0 35 -3 9 -5 1 -5 -18z"/>
<path d="M2531 1512 c0 -13 -8 -36 -16 -52 -9 -17 -13 -30 -11 -30 12 0 37 63
33 83 -4 22 -4 22 -6 -1z"/>
<path d="M1085 1510 c-3 -5 -1 -10 4 -10 6 0 11 5 11 10 0 6 -2 10 -4 10 -3 0
-8 -4 -11 -10z"/>
<path d="M3255 1511 l-30 -6 -3 -118 c-2 -95 -5 -117 -17 -117 -10 0 -15 -10
-15 -30 0 -29 -1 -29 -62 -33 l-63 -4 65 1 c61 1 65 2 68 26 2 14 10 29 18 33
11 6 14 35 14 122 l0 115 24 0 c14 0 28 5 31 10 3 6 5 9 3 9 -2 -1 -16 -4 -33
-8z"/>
<path d="M2393 1400 c0 -30 2 -43 4 -27 2 15 2 39 0 55 -2 15 -4 2 -4 -28z"/>
<path d="M2680 1420 c6 -11 13 -20 16 -20 2 0 0 9 -6 20 -6 11 -13 20 -16 20
-2 0 0 -9 6 -20z"/>
<path d="M2470 1381 c-5 -11 -10 -79 -10 -151 l0 -132 -80 4 c-43 2 -75 -1
-71 -5 4 -4 41 -7 82 -5 l74 3 5 140 c3 77 9 146 13 153 5 6 6 12 3 12 -3 0
-10 -9 -16 -19z"/>
<path d="M2713 1330 c0 -25 2 -35 4 -22 2 12 2 32 0 45 -2 12 -4 2 -4 -23z"/>
<path d="M1888 1323 c18 -2 32 -10 32 -17 0 -8 13 -19 29 -26 17 -6 32 -19 34
-28 4 -15 5 -15 6 0 0 10 -12 24 -29 33 -16 9 -30 22 -30 30 0 11 -10 15 -37
13 -37 -1 -37 -1 -5 -5z"/>
<path d="M2383 1250 c0 -41 2 -58 4 -37 2 20 2 54 0 75 -2 20 -4 3 -4 -38z"/>
<path d="M2724 1165 l1 -70 80 -1 80 0 -77 3 -77 4 -4 67 -3 67 0 -70z"/>
<path d="M1990 1223 c0 -6 8 -17 18 -24 16 -13 16 -13 2 6 -8 11 -16 22 -17
24 -2 2 -3 0 -3 -6z"/>
<path d="M2141 1194 c0 -11 3 -14 6 -6 3 7 2 16 -1 19 -3 4 -6 -2 -5 -13z"/>
<path d="M2024 1115 c1 -46 5 -60 16 -61 8 0 10 1 3 3 -7 3 -14 29 -16 61 l-3
57 0 -60z"/>
<path d="M3443 1105 c0 -27 2 -38 4 -22 2 15 2 37 0 50 -2 12 -4 0 -4 -28z"/>
<path d="M2930 1120 c-46 -25 -34 -25 21 0 24 11 37 19 29 19 -8 0 -31 -8 -50
-19z"/>
<path d="M1468 1043 c34 -2 90 -2 125 0 34 2 6 3 -63 3 -69 0 -97 -1 -62 -3z"/>
<path d="M4844 3165 l-47 -64 -71 -4 -71 -3 72 -2 71 -2 48 65 c26 35 52 61
57 58 6 -3 7 -1 3 5 -4 7 -9 12 -11 12 -2 0 -25 -29 -51 -65z"/>
<path d="M4930 3170 c12 -16 24 -30 26 -30 3 0 -4 14 -16 30 -12 17 -24 30
-26 30 -3 0 4 -13 16 -30z"/>
<path d="M4968 3118 c5 -5 16 -8 23 -6 8 3 3 7 -10 11 -17 4 -21 3 -13 -5z"/>
<path d="M4486 3111 c-3 -4 6 -6 19 -3 14 2 25 6 25 8 0 8 -39 4 -44 -5z"/>
<path d="M4573 3103 c15 -2 37 -2 50 0 12 2 0 4 -28 4 -27 0 -38 -2 -22 -4z"/>
<path d="M5039 3104 c17 -3 32 -12 34 -20 3 -9 4 -8 3 3 -1 13 -11 19 -34 21
-31 2 -31 2 -3 -4z"/>
<path d="M4466 3075 c-9 -26 -7 -32 5 -12 6 10 9 21 6 23 -2 3 -7 -2 -11 -11z"/>
<path d="M4446 3025 c-9 -26 -7 -32 5 -12 6 10 9 21 6 23 -2 3 -7 -2 -11 -11z"/>
<path d="M4426 2975 c-9 -26 -7 -32 5 -12 6 10 9 21 6 23 -2 3 -7 -2 -11 -11z"/>
<path d="M5084 2770 c0 -113 2 -159 3 -102 2 56 2 148 0 205 -1 56 -3 10 -3
-103z"/>
<path d="M4406 2925 c-9 -26 -7 -32 5 -12 6 10 9 21 6 23 -2 3 -7 -2 -11 -11z"/>
<path d="M4414 2520 c0 -146 2 -205 3 -132 2 72 2 192 0 265 -1 72 -3 13 -3
-133z"/>
<path d="M5094 2280 c0 -113 2 -159 3 -102 2 56 2 148 0 205 -1 56 -3 10 -3
-103z"/>
<path d="M553 2363 c9 -2 25 -2 35 0 9 3 1 5 -18 5 -19 0 -27 -2 -17 -5z"/>
<path d="M478 2339 c-21 -11 -38 -22 -38 -24 0 -5 79 32 89 41 12 11 -18 1
-51 -17z"/>
<path d="M625 2350 c27 -12 43 -12 25 0 -8 5 -22 9 -30 9 -10 0 -8 -3 5 -9z"/>
<path d="M690 2326 c0 -3 9 -10 20 -16 11 -6 20 -8 20 -6 0 3 -9 10 -20 16
-11 6 -20 8 -20 6z"/>
<path d="M387 2279 c-31 -25 -37 -37 -37 -68 0 -30 -5 -40 -24 -49 -22 -10
-25 -18 -28 -85 -2 -42 0 -73 5 -70 4 2 7 35 7 72 0 63 2 69 25 79 20 10 25
19 25 51 0 33 6 44 38 70 20 17 35 30 32 31 -3 0 -22 -14 -43 -31z"/>
<path d="M4420 2016 c0 -82 -4 -116 -12 -119 -8 -3 -6 -6 5 -6 15 -1 17 11 17
119 0 66 -2 120 -5 120 -3 0 -5 -51 -5 -114z"/>
<path d="M256 1981 c-12 -13 -16 -30 -13 -53 l4 -33 1 34 c1 19 9 43 19 53 9
10 14 18 11 18 -3 0 -13 -9 -22 -19z"/>
<path d="M230 1750 l0 -70 -26 11 c-15 5 -29 8 -31 5 -2 -2 10 -8 26 -14 l30
-11 4 -93 c2 -58 4 -30 5 75 1 92 0 167 -3 167 -3 0 -5 -31 -5 -70z"/>
<path d="M4574 1680 c0 -69 1 -97 3 -62 2 34 2 90 0 125 -2 34 -3 6 -3 -63z"/>
<path d="M50 1744 c34 -7 108 -8 103 -1 -2 4 -30 6 -61 6 -31 -1 -50 -3 -42
-5z"/>
<path d="M4584 1385 c0 -66 1 -92 3 -57 2 34 2 88 0 120 -2 31 -3 3 -3 -63z"/>
<path d="M224 1255 c0 -93 2 -133 3 -88 2 45 2 122 0 170 -1 48 -3 12 -3 -82z"/>
<path d="M4594 1120 c0 -52 1 -74 3 -48 l4 48 227 3 227 2 -227 3 -227 2 -4
43 c-2 23 -3 -1 -3 -53z"/>
<path d="M438 1023 c17 -2 47 -2 65 0 17 2 3 4 -33 4 -36 0 -50 -2 -32 -4z"/>
<path d="M215 1010 c3 -5 8 -10 11 -10 2 0 4 5 4 10 0 6 -5 10 -11 10 -5 0 -7
-4 -4 -10z"/>
<path d="M288 1013 c17 -2 47 -2 65 0 17 2 3 4 -33 4 -36 0 -50 -2 -32 -4z"/>
</g>
</svg>
