<?xml version="1.0" standalone="no"?>
<!DOCTYPE svg PUBLIC "-//W3C//DTD SVG 20010904//EN"
 "http://www.w3.org/TR/2001/REC-SVG-20010904/DTD/svg10.dtd">
<svg version="1.0" xmlns="http://www.w3.org/2000/svg"
 width="640.000000pt" height="640.000000pt" viewBox="0 0 640.000000 640.000000"
 preserveAspectRatio="xMidYMid meet">
<metadata>
Created by potrace 1.11, written by Peter Selinger 2001-2013
</metadata>
<g transform="translate(0.000000,640.000000) scale(0.100000,-0.100000)"
fill="#000000" stroke="none">
<path d="M2952 5756 c-411 -78 -772 -372 -1101 -896 -100 -159 -294 -556 -387
-790 -133 -337 -275 -782 -393 -1235 l-50 -190 0 92 -1 91 -71 48 c-76 50
-171 94 -204 93 -11 0 6 -8 38 -19 51 -16 162 -76 210 -113 14 -12 17 -31 17
-125 l0 -111 -67 -3 -68 -3 -5 -345 -6 -345 -56 -298 c-31 -164 -58 -300 -60
-301 -4 -4 -462 -34 -466 -31 -2 2 4 270 12 596 l16 594 35 30 c35 30 35 31
35 112 l0 81 35 21 c33 19 35 24 35 70 l0 50 78 51 c42 29 79 54 82 57 13 14
-51 -24 -107 -64 -63 -44 -63 -44 -63 -93 0 -44 -3 -50 -35 -69 l-35 -20 0
-83 c0 -82 0 -83 -34 -110 l-34 -27 -7 -179 -7 -179 -34 10 c-21 7 -37 20 -45
38 -11 28 -14 29 -78 27 l-66 -2 62 -3 c58 -4 64 -6 78 -33 9 -18 26 -31 45
-35 16 -4 32 -11 35 -16 4 -5 1 -194 -5 -420 -7 -226 -10 -412 -8 -414 2 -1
108 4 236 13 127 8 234 13 236 11 4 -4 -27 -215 -39 -265 -3 -16 -15 -24 -42
-28 -59 -11 -247 -58 -253 -64 -3 -2 13 -2 35 2 l40 6 -33 -17 c-18 -9 -31
-22 -29 -27 6 -22 114 -65 237 -95 305 -74 911 -137 1655 -173 356 -16 1611
-16 1970 0 850 40 1509 117 1788 208 40 13 51 14 65 3 12 -10 11 -7 -3 10 -43
50 -180 99 -395 141 -63 13 -118 26 -122 29 -6 5 -48 232 -48 260 0 7 32 11
100 11 l100 0 0 60 0 60 318 3 317 2 -317 3 -316 2 -6 63 c-12 133 -27 770
-21 841 l7 76 324 0 324 0 -1 208 c-1 114 -6 450 -13 747 l-11 540 -68 11
c-38 6 -72 16 -75 21 -36 55 -87 123 -92 123 -5 0 -84 -101 -112 -144 -4 -6
-47 -14 -95 -17 l-88 -6 87 -1 86 -2 59 80 c32 43 60 79 63 79 3 0 26 -30 52
-67 l47 -68 63 -10 63 -9 11 -535 c7 -294 12 -626 13 -737 l1 -203 -324 0
-325 0 -3 -42 -3 -43 -152 -3 -153 -3 -1 -147 -1 -147 -20 90 c-10 50 -39 177
-64 283 -24 107 -44 196 -44 198 0 3 33 4 73 2 l72 -3 3 -97 3 -96 46 -16 c26
-9 48 -14 51 -11 2 2 0 294 -6 647 l-10 643 5 -642 5 -643 -38 14 -39 13 -5
99 -5 99 -81 3 -81 3 -13 57 c-69 312 -252 913 -382 1257 -401 1060 -886 1660
-1465 1812 -122 31 -363 41 -481 19z m353 -168 c339 -52 654 -301 924 -733 82
-131 225 -422 300 -610 152 -384 288 -858 400 -1395 23 -107 43 -205 46 -217
5 -21 2 -23 -38 -23 -40 0 -45 -4 -80 -50 -66 -88 -67 -86 -67 224 l0 275 -34
26 c-27 20 -36 35 -38 63 -3 33 -7 37 -40 45 -36 8 -38 11 -38 48 l0 39 -129
0 -128 0 -7 -40 c-5 -33 -12 -43 -41 -57 -29 -14 -34 -22 -37 -57 -2 -32 -7
-42 -23 -44 -11 -2 -28 -11 -37 -20 -17 -14 -18 -46 -18 -406 0 -373 -1 -392
-20 -416 -17 -22 -20 -42 -20 -174 l0 -148 -25 6 c-18 5 -27 1 -35 -14 -7 -13
-21 -20 -40 -20 l-30 0 0 -140 c0 -140 0 -140 -25 -152 -19 -9 -25 -19 -25
-45 l0 -33 -54 0 c-29 0 -74 -3 -100 -6 l-46 -7 0 257 0 256 -185 0 -185 0 0
25 c0 17 -8 29 -25 37 -17 7 -25 19 -25 36 0 16 -23 50 -70 102 -38 43 -70 84
-70 91 0 8 -4 21 -9 28 -8 12 -12 9 -23 -15 -7 -16 -39 -60 -70 -98 -40 -48
-58 -78 -58 -98 0 -20 -8 -31 -30 -43 l-30 -16 0 -112 c0 -62 -4 -117 -9 -122
-7 -8 -31 -303 -31 -385 0 -18 -7 -20 -76 -20 -41 0 -84 5 -95 10 -14 8 -28 6
-58 -9 l-39 -20 -6 22 c-3 12 -6 35 -6 50 0 16 -12 44 -26 63 l-27 35 -23 -35
c-23 -34 -24 -42 -24 -214 l0 -179 -207 -7 c-398 -13 -824 -40 -1138 -71 -77
-8 -141 -13 -142 -11 -1 1 4 56 12 121 8 66 15 123 15 127 0 13 498 10 502 -3
2 -7 101 -7 328 1 179 6 331 13 338 15 9 3 12 136 12 620 l0 615 -340 0 -339
0 -3 -68 -3 -67 -84 -3 -83 -3 6 38 c4 21 9 46 12 55 4 12 -9 25 -48 48 -29
17 -65 33 -80 37 -16 3 -28 9 -28 13 0 3 20 105 44 226 201 1005 468 1737 802
2205 67 94 240 278 317 337 247 190 505 257 812 210z m1327 -2355 c3 -32 8
-38 38 -48 30 -10 35 -17 38 -46 2 -26 11 -39 37 -57 l35 -22 0 -280 c0 -270
1 -280 19 -280 23 0 36 12 71 63 22 33 30 37 67 37 50 0 41 22 82 -210 56
-313 122 -771 166 -1140 8 -74 17 -146 19 -159 4 -23 3 -24 -58 -17 -228 24
-685 53 -1128 72 l-158 6 0 114 0 113 -30 16 c-26 14 -30 21 -30 59 l0 44 63
6 c34 3 80 7 102 9 37 2 40 4 43 35 2 24 10 35 28 42 24 9 24 10 24 150 l0
140 24 0 c14 0 31 9 39 21 12 17 19 19 35 10 11 -6 22 -7 26 -4 3 3 6 74 6
157 0 134 3 154 20 176 19 24 20 43 20 416 0 418 -1 408 50 416 21 2 26 9 30
46 4 34 11 46 37 62 23 14 34 29 39 55 l6 35 119 0 118 0 3 -37z m-3626 -660
c-3 -10 -30 -133 -61 -273 -31 -140 -57 -259 -60 -265 -2 -5 -4 117 -4 273
l-1 282 66 0 c58 0 65 -2 60 -17z m402 -8 c74 -38 72 -35 61 -85 -7 -31 -20
-53 -42 -72 l-32 -27 -10 -234 c-5 -130 -13 -238 -17 -242 -3 -3 -38 -3 -78 1
l-72 7 6 51 c12 90 98 611 103 619 8 13 33 8 81 -18z m902 -624 l0 -608 -197
-7 c-109 -3 -258 -9 -330 -13 l-133 -6 0 622 0 621 330 0 330 0 0 -609z m-680
-72 l0 -539 -245 0 -246 0 5 33 c5 27 45 338 63 491 l6 48 84 -7 c45 -4 84 -5
84 -3 1 1 7 112 13 246 13 294 5 279 146 274 l90 -3 0 -540z m1671 350 c47
-52 69 -85 69 -102 0 -15 9 -31 25 -41 16 -10 25 -26 25 -41 l0 -25 185 0 185
0 0 -300 c0 -294 0 -300 -19 -290 -11 5 -23 10 -28 9 -4 0 17 -12 47 -27 l55
-27 0 -110 0 -110 -582 0 -583 0 0 112 0 111 54 30 54 29 56 -28 c50 -26 66
-29 151 -29 l95 0 -2 163 -2 162 -3 -157 -4 -158 -92 0 c-61 1 -100 6 -117 15
-24 13 -21 14 42 15 37 0 69 3 71 8 3 4 10 95 17 202 7 107 16 199 21 204 5 6
9 60 9 122 l0 112 30 11 c25 8 30 15 30 44 0 26 13 48 58 103 32 38 62 78 67
89 l8 20 5 -20 c2 -11 35 -54 73 -96z m2429 14 c0 -43 7 -251 15 -463 8 -212
15 -404 15 -427 l0 -43 -98 0 -98 0 -13 78 c-7 42 -35 192 -62 332 -47 244
-49 263 -49 428 l0 172 145 0 145 0 0 -77z m-3059 -696 c24 -33 33 -131 14
-147 -12 -10 -15 -37 -15 -126 l0 -114 -30 0 -30 0 0 180 c0 150 3 185 16 205
20 30 25 31 45 2z"/>
<path d="M4303 4296 c-17 -8 -42 -30 -55 -50 -25 -36 -25 -36 -43 -16 -24 27
-85 44 -127 36 -77 -14 -128 -74 -128 -150 0 -34 -1 -36 -35 -36 -19 0 -35 -4
-35 -10 0 -5 16 -10 35 -10 l35 0 0 -172 c0 -95 -3 -183 -6 -196 -4 -15 -17
-25 -35 -29 -60 -12 -25 -23 71 -23 60 0 100 4 100 10 0 6 -11 10 -25 10 -39
0 -45 32 -45 226 l0 174 105 0 105 0 0 -164 c0 -205 -4 -225 -41 -233 -62 -12
-24 -23 81 -23 67 0 110 4 110 10 0 6 -10 10 -23 10 -13 0 -32 6 -43 14 -17
13 -19 30 -22 200 l-3 186 45 0 c25 0 46 5 46 10 0 6 -21 10 -46 10 l-47 0 6
80 c6 100 23 130 72 130 37 0 54 -14 29 -24 -10 -4 -14 -16 -12 -38 2 -26 8
-34 26 -36 52 -8 70 48 28 87 -30 28 -82 35 -123 17z m-109 -71 c23 -21 26
-32 26 -85 l0 -60 -105 0 -105 0 0 33 c0 44 16 96 36 118 27 30 113 26 148 -6z"/>
<path d="M3390 4291 c0 -5 11 -12 25 -15 17 -4 27 -17 34 -44 11 -39 15 -192
5 -192 -3 0 -17 9 -31 20 -45 35 -141 24 -191 -23 -46 -43 -65 -95 -65 -182 1
-93 21 -153 64 -189 56 -47 157 -42 198 10 25 31 31 30 31 -6 l0 -30 66 0 c41
0 63 4 59 10 -3 6 -12 10 -20 10 -8 0 -21 10 -29 22 -14 19 -16 67 -16 320 l0
298 -65 0 c-36 0 -65 -4 -65 -9z m19 -235 c42 -22 51 -55 51 -182 0 -162 -27
-214 -111 -214 -46 0 -82 34 -99 94 -17 62 -9 201 14 249 30 61 88 82 145 53z"/>
<path d="M3697 4272 c-10 -10 -17 -28 -17 -39 0 -21 29 -53 48 -53 17 0 52 37
52 55 0 19 -35 55 -53 55 -8 0 -21 -8 -30 -18z"/>
<path d="M2015 4241 c-83 -21 -152 -89 -182 -175 -23 -69 -23 -194 1 -265 26
-76 87 -135 162 -157 72 -21 128 -15 199 22 57 28 69 27 78 -11 3 -11 5 26 6
83 0 56 -1 102 -3 102 -2 0 -9 -23 -15 -51 -21 -96 -74 -139 -174 -139 -62 0
-108 25 -144 79 -52 77 -68 219 -38 336 31 117 81 165 173 165 96 0 161 -50
181 -138 16 -73 21 -60 20 49 -1 57 -3 95 -6 84 -9 -37 -21 -39 -73 -11 -54
29 -133 41 -185 27z"/>
<path d="M3703 4082 c-35 -2 -63 -7 -63 -12 0 -6 6 -10 14 -10 8 0 22 -7 30
-16 13 -13 16 -44 16 -180 0 -172 -6 -204 -40 -204 -11 0 -20 -4 -20 -10 0 -6
38 -10 95 -10 57 0 95 4 95 10 0 6 -8 10 -19 10 -36 0 -41 21 -43 226 l-3 199
-62 -3z"/>
<path d="M2470 4069 c-38 -16 -70 -50 -70 -75 0 -32 27 -56 54 -48 40 13 47
43 16 74 -19 19 -19 19 3 35 29 21 90 19 117 -3 27 -22 40 -112 20 -137 -7 -9
-55 -36 -106 -60 -96 -46 -124 -75 -124 -125 0 -88 126 -118 205 -48 32 28 35
28 35 9 0 -31 43 -55 85 -47 19 4 37 11 40 17 4 6 -3 7 -19 3 -38 -9 -46 24
-46 201 0 148 -1 155 -24 182 -21 24 -31 28 -92 30 -38 2 -80 -2 -94 -8z m150
-255 c0 -86 -8 -108 -50 -129 -38 -20 -79 -19 -102 2 -26 23 -24 85 5 117 20
23 121 85 140 86 4 0 7 -34 7 -76z"/>
<path d="M2790 4070 c0 -5 8 -10 19 -10 39 0 46 -26 49 -189 3 -169 -4 -203
-46 -209 -12 -2 -22 -8 -22 -13 0 -5 49 -9 110 -9 67 0 110 4 110 10 0 6 -11
10 -25 10 -14 0 -34 9 -46 21 -20 20 -21 30 -17 147 3 106 7 134 25 168 24 45
61 74 93 74 21 0 27 -14 10 -25 -17 -11 -11 -54 9 -65 25 -13 27 -13 45 6 39
38 5 94 -57 94 -39 0 -91 -36 -102 -70 -11 -35 -25 -21 -25 25 l0 45 -65 0
c-37 0 -65 -4 -65 -10z"/>
<path d="M2495 3372 c-55 -26 -78 -63 -79 -128 -1 -72 28 -108 143 -186 105
-71 131 -103 131 -166 0 -35 -6 -49 -29 -73 -25 -25 -37 -29 -84 -29 -41 0
-61 5 -82 22 -32 25 -64 91 -65 130 0 15 -4 30 -10 33 -6 4 -10 -31 -10 -97 0
-95 1 -101 16 -80 l15 22 39 -20 c124 -63 264 -11 277 104 11 91 -16 129 -159
224 -58 37 -105 76 -113 93 -24 45 -19 87 14 120 25 24 38 29 79 29 68 0 106
-32 128 -106 8 -30 17 -54 20 -54 2 0 4 39 4 88 -1 69 -3 83 -12 67 -6 -11
-12 -22 -14 -24 -2 -2 -19 6 -38 18 -50 31 -121 36 -171 13z"/>
<path d="M2834 3364 c3 -9 7 -48 7 -87 1 -40 3 -63 6 -52 28 121 40 135 123
135 l60 0 0 -264 c0 -287 -2 -296 -56 -296 -13 0 -24 -4 -24 -10 0 -6 47 -10
121 -10 77 0 118 4 114 10 -3 6 -17 10 -30 10 -53 0 -55 9 -55 296 l0 264 59
0 c76 0 96 -17 115 -95 l14 -60 1 65 c1 36 4 75 7 88 l6 22 -237 0 c-212 0
-236 -2 -231 -16z"/>
<path d="M3370 3371 c0 -5 12 -11 27 -13 19 -2 29 -10 34 -28 9 -32 11 -447 3
-489 -5 -25 -13 -33 -35 -38 -75 -15 -11 -23 181 -23 l210 0 -1 93 -1 92 -13
-53 c-16 -64 -38 -100 -68 -107 -12 -3 -60 -5 -107 -3 l-85 3 -6 30 c-9 39 -9
451 0 490 5 23 12 31 34 33 15 2 27 8 27 13 0 5 -45 9 -100 9 -55 0 -100 -4
-100 -9z"/>
<path d="M2368 1663 c33 -3 42 -8 42 -23 0 -12 12 -22 35 -30 27 -9 37 -19 44
-45 5 -19 18 -47 30 -63 15 -21 21 -48 23 -103 2 -57 6 -74 18 -75 9 0 10 1 3
3 -9 3 -13 27 -13 75 0 55 -4 76 -21 99 -11 16 -25 46 -31 65 -7 27 -18 39
-44 50 -22 9 -34 21 -34 34 0 17 -6 20 -47 18 l-48 -1 43 -4z"/>
<path d="M4460 1880 l0 -430 -75 0 -75 0 2 -62 2 -63 3 58 4 57 74 0 75 0 0
430 0 430 167 0 c162 0 167 -1 202 -26 l36 -25 -35 30 -34 31 -173 0 -173 0 0
-430z"/>
<path d="M4918 2243 c23 -2 59 -2 80 0 20 2 1 4 -43 4 -44 0 -61 -2 -37 -4z"/>
<path d="M3223 2045 c-30 -13 -31 -16 -38 -91 -6 -64 -15 -91 -52 -161 -24
-45 -42 -83 -39 -83 2 0 23 34 46 76 33 59 45 95 53 158 11 75 14 82 41 95 26
12 33 12 55 0 24 -13 27 -22 32 -94 l5 -80 2 75 c2 81 -1 91 -35 109 -27 14
-30 14 -70 -4z"/>
<path d="M3323 1853 c2 -5 20 -36 41 -70 l37 -62 7 -168 7 -168 110 -3 c96 -3
116 0 157 19 27 12 46 24 44 26 -2 3 -22 -5 -45 -16 -33 -17 -59 -21 -149 -21
l-109 0 -6 165 -6 164 -41 71 c-23 38 -44 70 -47 70 -2 0 -2 -3 0 -7z"/>
<path d="M5577 3793 c-26 -64 -45 -118 -43 -120 2 -2 24 47 49 109 l45 113
109 -1 c92 -2 99 -1 48 6 -33 4 -83 8 -111 9 l-50 1 -47 -117z"/>
<path d="M640 2954 c-16 -10 -18 -13 -5 -8 11 4 36 10 55 14 34 8 34 8 5 8
-16 1 -41 -6 -55 -14z"/>
<path d="M28 2198 c5 -5 16 -8 23 -6 8 3 3 7 -10 11 -17 4 -21 3 -13 -5z"/>
</g>
</svg>
