<?xml version="1.0" standalone="no"?>
<!DOCTYPE svg PUBLIC "-//W3C//DTD SVG 20010904//EN"
 "http://www.w3.org/TR/2001/REC-SVG-20010904/DTD/svg10.dtd">
<svg version="1.0" xmlns="http://www.w3.org/2000/svg"
 width="480.000000pt" height="480.000000pt" viewBox="0 0 480.000000 480.000000"
 preserveAspectRatio="xMidYMid meet">
<metadata>
Created by potrace 1.11, written by Peter Selinger 2001-2013
</metadata>
<g transform="translate(0.000000,480.000000) scale(0.100000,-0.100000)"
fill="#000000" stroke="none">
<path d="M2245 4794 c-370 -37 -624 -105 -904 -244 -489 -244 -851 -607 -1091
-1095 -120 -243 -193 -486 -231 -765 -17 -122 -17 -458 0 -580 74 -548 309
-1028 686 -1405 193 -192 387 -331 640 -455 243 -120 486 -193 765 -231 122
-17 458 -17 580 0 548 74 1028 309 1405 686 192 193 331 387 455 640 120 243
193 486 231 765 17 122 17 458 0 580 -74 548 -309 1028 -686 1405 -369 368
-844 605 -1370 681 -100 14 -404 26 -480 18z m530 -63 c517 -88 955 -317 1316
-687 126 -130 186 -204 282 -349 266 -405 399 -875 384 -1365 -19 -626 -265
-1184 -713 -1621 -130 -126 -204 -186 -349 -282 -538 -354 -1189 -470 -1835
-326 -322 72 -678 247 -945 464 -103 84 -268 248 -351 350 -95 116 -212 302
-285 450 -238 487 -299 1030 -178 1575 72 322 247 678 464 945 84 103 248 268
350 351 327 267 768 454 1198 509 162 20 504 13 662 -14z"/>
<path d="M2255 4245 c-86 -18 -228 -86 -315 -153 -77 -58 -206 -188 -286 -287
-62 -78 -206 -292 -250 -372 -34 -61 -27 -61 -163 3 -155 74 -299 166 -469
303 -65 53 -73 32 -29 -71 80 -187 197 -545 272 -830 l36 -138 -56 -145 c-132
-345 -282 -828 -370 -1202 -25 -103 -45 -194 -45 -200 0 -7 8 -13 18 -13 10 0
43 -13 73 -30 136 -73 524 -137 1038 -171 l164 -10 230 -116 c127 -64 241
-126 254 -139 l23 -23 27 25 c15 14 129 76 254 139 l226 114 169 11 c510 33
896 96 1031 169 31 17 65 31 75 31 10 0 18 6 18 13 0 8 -29 130 -65 273 -100
400 -206 742 -354 1134 l-51 135 21 85 c57 240 189 650 281 873 30 71 38 101
30 109 -8 8 -16 7 -30 -3 -10 -8 -70 -53 -133 -100 -132 -99 -251 -172 -370
-228 -131 -61 -114 -66 -193 66 -193 322 -422 570 -626 677 -143 75 -295 100
-435 71z m269 -360 c120 -57 249 -207 385 -445 l71 -125 -40 -3 c-99 -8 -293
66 -403 153 -49 39 -132 136 -151 177 -5 11 -7 11 -12 0 -19 -41 -102 -138
-151 -177 -108 -85 -288 -155 -400 -155 l-45 0 48 88 c151 280 314 461 457
508 66 22 170 13 241 -21z m-1646 -273 c111 -82 225 -150 352 -210 63 -31 116
-56 118 -58 2 -1 -35 -78 -81 -170 -46 -93 -108 -225 -137 -293 -45 -104 -55
-120 -61 -100 -4 13 -26 92 -48 175 -62 231 -161 528 -236 708 -10 24 -6 21
93 -52z m3071 -13 c-48 -117 -163 -468 -214 -654 -25 -93 -47 -174 -48 -179
-2 -4 -29 52 -61 125 -33 74 -95 206 -139 294 -52 104 -75 161 -67 163 7 3 67
31 133 64 126 62 243 134 355 219 36 27 67 48 69 46 2 -2 -11 -37 -28 -78z
m-1546 -48 c28 -47 133 -138 210 -181 94 -52 207 -88 306 -96 l80 -7 44 -101
c168 -384 330 -920 447 -1483 l38 -183 -30 -47 c-47 -75 -213 -231 -328 -309
-149 -101 -201 -130 -512 -289 l-278 -142 -287 146 c-296 151 -363 189 -518
295 -100 68 -265 225 -312 299 l-31 47 39 187 c117 565 277 1096 443 1474 l47
106 72 6 c104 9 180 31 282 81 93 46 191 125 236 190 13 20 26 36 29 36 3 0
13 -13 23 -29z m-1143 -2165 c0 -3 -10 -6 -23 -6 -20 0 -23 4 -19 30 l4 30 19
-24 c11 -13 19 -27 19 -30z m2280 19 c0 -18 -5 -25 -20 -25 -24 0 -25 8 -3 32
21 23 23 23 23 -7z m-9 -110 c23 -6 28 -13 33 -58 4 -29 10 -62 13 -74 l5 -23
257 0 c223 -1 253 -3 231 -15 -126 -68 -558 -138 -990 -161 l-125 -6 98 61
c130 80 217 142 302 217 39 33 76 63 83 65 17 6 62 3 93 -6z m-2170 -21 c39
-43 190 -157 291 -219 51 -32 107 -67 123 -77 l30 -19 -125 6 c-404 19 -818
84 -965 151 l-50 22 257 1 256 1 6 28 c3 15 8 48 12 74 7 52 11 55 90 57 43 1
54 -3 75 -25z"/>
</g>
</svg>
